<svg width="98" height="81" fill="none" xmlns="http://www.w3.org/2000/svg"><path d="M1 0v69.271h28.935L40.583 80M39.542 0v57.61L51 69.27M24.264 54.344h-8.102V15.277h8.102v39.067z" stroke="#fff" stroke-width="2"/><path d="M54.496 44.616c.752 0 1.424.288 2.016.864l-.912 1.824c-.528-.432-1.04-.648-1.536-.648-.56 0-1.024.224-1.392.672-.352.432-.528.992-.528 1.68V57H49.96V44.88h2.184v.792c.624-.704 1.408-1.056 2.352-1.056zm7.276-.096c.88 0 1.656.184 2.328.552a3.86 3.86 0 011.608 1.512c.384.64.576 1.376.576 2.208V51.6h-6.816v1.08c0 .88.2 1.568.6 2.064.416.48.984.72 1.704.72h.096c.64 0 1.168-.2 1.584-.6.432-.4.68-.912.744-1.536l2.04.408c-.16 1.088-.64 1.968-1.44 2.64-.784.656-1.752.984-2.904.984h-.144c-1.392 0-2.488-.408-3.288-1.224-.784-.832-1.176-1.984-1.176-3.456v-3.504c0-1.456.392-2.592 1.176-3.408.8-.832 1.904-1.248 3.312-1.248zm-2.304 5.52H64.1v-1.248c0-.704-.216-1.28-.648-1.728-.432-.448-.992-.672-1.68-.672-.72 0-1.288.248-1.704.744-.4.496-.6 1.184-.6 2.064v.84zm15.934-5.16h2.184V57h-2.184v-.96a3.356 3.356 0 01-1.248.96c-.48.24-1.016.36-1.608.36-1.184 0-2.152-.392-2.904-1.176-.736-.8-1.104-1.816-1.104-3.048v-4.392c0-1.248.368-2.264 1.104-3.048.752-.784 1.72-1.176 2.904-1.176a3.86 3.86 0 011.608.336c.496.224.912.544 1.248.96v-.936zm-2.304 10.536c.672 0 1.224-.208 1.656-.624.432-.432.648-.984.648-1.656v-4.392c0-.672-.216-1.216-.648-1.632-.432-.432-.984-.648-1.656-.648-.704 0-1.28.216-1.728.648-.432.416-.648.96-.648 1.632v4.392c0 .672.216 1.224.648 1.656.448.416 1.024.624 1.728.624zm13.813 1.392c-.768.368-1.496.552-2.184.552-1.12 0-2-.352-2.64-1.056-.64-.72-.96-1.712-.96-2.976V46.68h-1.392v-1.8h1.392v-4.656l2.184-.24v4.896h3.024v1.8h-3.024v6.624c0 .64.144 1.144.432 1.512.304.352.712.528 1.224.528.384 0 .808-.16 1.272-.48l.672 1.944zm5.702-12.288c.88 0 1.656.184 2.328.552a3.86 3.86 0 011.608 1.512c.384.64.576 1.376.576 2.208V51.6h-6.816v1.08c0 .88.2 1.568.6 2.064.416.48.984.72 1.704.72h.096c.64 0 1.168-.2 1.584-.6.432-.4.68-.912.744-1.536l2.04.408c-.16 1.088-.64 1.968-1.44 2.64-.784.656-1.752.984-2.904.984h-.144c-1.392 0-2.488-.408-3.288-1.224-.784-.832-1.176-1.984-1.176-3.456v-3.504c0-1.456.392-2.592 1.176-3.408.8-.832 1.904-1.248 3.312-1.248zm-2.304 5.52h4.632v-1.248c0-.704-.216-1.28-.648-1.728-.432-.448-.992-.672-1.68-.672-.72 0-1.288.248-1.704.744-.4.496-.6 1.184-.6 2.064v.84z" fill="#fff"/></svg>